<svg width="278" height="81" viewBox="0 0 278 81" fill="none" xmlns="http://www.w3.org/2000/svg">
<path d="M2.66406 45.4688C2.29948 45.2344 2.01302 44.9349 1.80469 44.5703C1.57031 44.2057 1.38802 43.8151 1.25781 43.3984C1.10156 42.9818 0.984375 42.5521 0.90625 42.1094C0.802083 41.6406 0.697917 41.1979 0.59375 40.7812C0.59375 40.4167 0.671875 40.1562 0.828125 40C0.984375 39.8177 1.15365 39.6484 1.33594 39.4922C1.96094 39.4661 2.52083 39.4141 3.01562 39.3359C3.51042 39.2578 3.99219 39.1797 4.46094 39.1016C4.92969 39.0234 5.39844 38.9583 5.86719 38.9062C6.33594 38.8281 6.84375 38.7891 7.39062 38.7891C7.78125 37.9818 8.14583 37.2135 8.48438 36.4844C8.82292 35.7292 9.14844 35.013 9.46094 34.3359C9.61719 33.6849 9.8125 33.0859 10.0469 32.5391C10.3073 31.9661 10.5547 31.4323 10.7891 30.9375C11.0234 30.4167 11.2318 29.9089 11.4141 29.4141C11.5964 28.8932 11.7135 28.3464 11.7656 27.7734C12.0781 26.862 12.3516 26.0286 12.5859 25.2734C12.8464 24.4922 13.0417 23.5677 13.1719 22.5C12.1823 22.6562 11.388 22.8125 10.7891 22.9688C10.1901 23.099 9.76042 23.2292 9.5 23.3594C8.97917 23.3333 8.5625 23.2292 8.25 23.0469C7.96354 22.8646 7.72917 22.6432 7.54688 22.3828C7.36458 22.1224 7.20833 21.8229 7.07812 21.4844C6.94792 21.1458 6.79167 20.7943 6.60938 20.4297C6.71354 20.1953 6.73958 19.8568 6.6875 19.4141C6.63542 18.9453 6.47917 18.6068 6.21875 18.3984C6.42708 18.3464 6.58333 18.1771 6.6875 17.8906C6.79167 17.5781 6.80469 17.3438 6.72656 17.1875C7.16927 17.0573 7.63802 16.9792 8.13281 16.9531C8.6276 16.901 9.10938 16.862 9.57812 16.8359C10.0729 16.7839 10.5417 16.7318 10.9844 16.6797C11.4271 16.6016 11.8047 16.4583 12.1172 16.25C13.4714 16.1979 14.8776 16.1458 16.3359 16.0938C17.8203 16.0417 19.1875 15.9766 20.4375 15.8984C20.9062 16.0547 21.4401 16.1328 22.0391 16.1328C22.6641 16.1328 23.276 16.1719 23.875 16.25C24.5 16.3281 25.0469 16.4974 25.5156 16.7578C26.0104 17.0182 26.349 17.474 26.5312 18.125C26.9219 18.1771 27.2083 18.2812 27.3906 18.4375C27.599 18.5938 27.7292 18.7891 27.7812 19.0234C27.8333 19.2318 27.8464 19.4792 27.8203 19.7656C27.8203 20.026 27.8203 20.2865 27.8203 20.5469C27.4036 20.8594 26.8698 21.1198 26.2188 21.3281C25.5938 21.5104 24.9036 21.6667 24.1484 21.7969C23.3932 21.901 22.599 21.9792 21.7656 22.0312C20.9583 22.0573 20.1641 22.0833 19.3828 22.1094C19.2526 22.9688 19.0182 23.9844 18.6797 25.1562C18.3672 26.3021 18.0417 27.4349 17.7031 28.5547C17.3646 29.6484 17.0651 30.638 16.8047 31.5234C16.5703 32.3828 16.4661 32.9427 16.4922 33.2031C16.2318 33.8021 16.0104 34.3099 15.8281 34.7266C15.6719 35.1432 15.5156 35.5339 15.3594 35.8984C15.2292 36.263 15.0859 36.6276 14.9297 36.9922C14.7995 37.3307 14.6302 37.7214 14.4219 38.1641H17.0781C17.1302 38.4505 17.2474 38.6458 17.4297 38.75C17.612 38.8542 17.8073 38.9453 18.0156 39.0234C18.224 39.1016 18.4062 39.2057 18.5625 39.3359C18.7448 39.4401 18.8359 39.6224 18.8359 39.8828C19.3307 40.013 19.6432 40.2083 19.7734 40.4688C19.9036 40.7292 19.9297 41.0156 19.8516 41.3281C19.7995 41.6146 19.6693 41.9141 19.4609 42.2266C19.2786 42.5391 19.0964 42.8125 18.9141 43.0469C18.6797 42.9948 18.4583 43.0599 18.25 43.2422C18.0417 43.3984 17.8464 43.5807 17.6641 43.7891C16.9089 43.6849 16.1667 43.6719 15.4375 43.75C14.7083 43.8281 14.0312 43.8932 13.4062 43.9453C13.276 43.9714 13.224 44.0495 13.25 44.1797C13.276 44.2839 13.25 44.362 13.1719 44.4141C12.3646 44.1536 11.5312 44.0495 10.6719 44.1016C9.83854 44.1536 8.97917 44.2839 8.09375 44.4922C7.23438 44.6745 6.34896 44.8698 5.4375 45.0781C4.52604 45.3125 3.60156 45.4427 2.66406 45.4688ZM30.6328 37.8906C30.3984 37.9427 30.2292 38.0859 30.125 38.3203C30.0208 38.5286 29.9167 38.75 29.8125 38.9844C29.7344 39.2188 29.6432 39.4401 29.5391 39.6484C29.4609 39.8307 29.3307 39.9219 29.1484 39.9219C29.1224 40.1302 29.0443 40.3125 28.9141 40.4688C28.8099 40.625 28.7057 40.7943 28.6016 40.9766C28.4974 41.1328 28.4193 41.3151 28.3672 41.5234C28.3151 41.7057 28.3411 41.9271 28.4453 42.1875C28.237 42.3438 28.1068 42.5651 28.0547 42.8516C28.0026 43.138 27.9375 43.4115 27.8594 43.6719C27.8073 43.9323 27.7031 44.1536 27.5469 44.3359C27.3906 44.5182 27.1042 44.5964 26.6875 44.5703C26.6094 44.6745 26.5964 44.7396 26.6484 44.7656C26.7005 44.7917 26.7396 44.8828 26.7656 45.0391C26.4792 44.987 26.2578 45 26.1016 45.0781C25.9714 45.1823 25.8021 45.2474 25.5938 45.2734C25.099 45.1172 24.6823 44.8438 24.3438 44.4531C24.0312 44.0625 23.7448 43.6328 23.4844 43.1641C23.25 42.6693 23.0286 42.1745 22.8203 41.6797C22.638 41.1849 22.4557 40.7552 22.2734 40.3906C22.3516 40.1042 22.3646 39.8307 22.3125 39.5703C22.2604 39.2839 22.1693 39.0495 22.0391 38.8672C23.3151 36.1589 24.7083 33.2682 26.2188 30.1953C27.7292 27.1224 29.1615 24.0885 30.5156 21.0938C31.1146 21.3281 31.7005 21.6016 32.2734 21.9141C32.8724 22.2005 33.4062 22.5391 33.875 22.9297C34.3698 23.3203 34.7865 23.776 35.125 24.2969C35.4635 24.7917 35.6849 25.3516 35.7891 25.9766C35.737 26.1328 35.6719 26.1979 35.5938 26.1719C35.5417 26.1198 35.4896 26.1328 35.4375 26.2109C35.5417 26.3411 35.5938 26.4323 35.5938 26.4844C35.6198 26.5365 35.6198 26.5885 35.5938 26.6406C35.5938 26.6927 35.5938 26.7708 35.5938 26.875C35.5938 26.9531 35.6328 27.0703 35.7109 27.2266C35.6068 27.2005 35.5286 27.2135 35.4766 27.2656C35.4505 27.3177 35.3724 27.3177 35.2422 27.2656C35.3464 27.5521 35.3724 27.7865 35.3203 27.9688C35.2943 28.151 35.2422 28.3203 35.1641 28.4766C35.0859 28.6068 35.0208 28.763 34.9688 28.9453C34.9167 29.1016 34.9297 29.3099 35.0078 29.5703C34.9297 29.5703 34.8646 29.5964 34.8125 29.6484C34.7865 29.6745 34.7604 29.7135 34.7344 29.7656C34.7083 29.7917 34.6693 29.8307 34.6172 29.8828C34.5911 29.9089 34.5391 29.9089 34.4609 29.8828C34.5391 30.4557 34.5651 31.0286 34.5391 31.6016C34.513 32.1745 34.487 32.7604 34.4609 33.3594C34.4609 33.9323 34.474 34.5443 34.5 35.1953C34.526 35.8203 34.6172 36.4714 34.7734 37.1484C35.7109 36.6016 36.4531 35.8984 37 35.0391C37.5729 34.1797 38.0286 33.2161 38.3672 32.1484C38.7318 31.0807 39.0052 29.9349 39.1875 28.7109C39.3698 27.487 39.5651 26.237 39.7734 24.9609C40.0078 24.7266 40.1901 24.4401 40.3203 24.1016C40.4505 23.763 40.5677 23.4115 40.6719 23.0469C40.776 22.6562 40.8802 22.2786 40.9844 21.9141C41.0885 21.5234 41.2188 21.1719 41.375 20.8594C41.7656 20.9115 42.0911 21.0417 42.3516 21.25C42.638 21.4323 42.8984 21.6406 43.1328 21.875C43.3672 22.0833 43.6146 22.2917 43.875 22.5C44.1354 22.6823 44.4609 22.7995 44.8516 22.8516C45.1641 23.2943 45.4505 23.724 45.7109 24.1406C45.9714 24.5573 46.1406 25 46.2188 25.4688C46.0885 25.6771 45.9844 25.9115 45.9062 26.1719C45.8542 26.4323 45.7891 26.6927 45.7109 26.9531C45.6328 27.2135 45.5286 27.4609 45.3984 27.6953C45.2682 27.9036 45.0859 28.0859 44.8516 28.2422C44.7734 28.9193 44.6693 29.5443 44.5391 30.1172C44.4349 30.6641 44.3177 31.2109 44.1875 31.7578C44.0833 32.3047 43.9922 32.8776 43.9141 33.4766C43.8359 34.0495 43.8099 34.6875 43.8359 35.3906C43.6276 35.9896 43.4062 36.6276 43.1719 37.3047C42.9375 37.9818 42.7552 38.5938 42.625 39.1406C42.2083 39.4792 41.8828 39.8828 41.6484 40.3516C41.4141 40.8203 41.1667 41.2891 40.9062 41.7578C40.8021 41.862 40.737 41.888 40.7109 41.8359C40.6849 41.7839 40.5938 41.7448 40.4375 41.7188C40.4635 41.8229 40.4635 41.901 40.4375 41.9531C40.4115 42.0052 40.3724 42.0573 40.3203 42.1094C40.2943 42.1354 40.2682 42.1875 40.2422 42.2656C40.2422 42.3438 40.2682 42.4479 40.3203 42.5781C39.9557 42.7344 39.6302 42.9557 39.3438 43.2422C39.0573 43.5286 38.7448 43.7891 38.4062 44.0234C38.0938 44.2578 37.7031 44.4141 37.2344 44.4922C36.7917 44.5703 36.2057 44.4792 35.4766 44.2188C34.4089 43.4375 33.4583 42.5391 32.625 41.5234C31.8177 40.5078 31.1536 39.2969 30.6328 37.8906ZM58.2109 38.125C58.1849 38.4896 58.0938 38.8411 57.9375 39.1797C57.8073 39.4922 57.638 39.8047 57.4297 40.1172C57.2214 40.4036 56.987 40.6901 56.7266 40.9766C56.4922 41.237 56.2578 41.4714 56.0234 41.6797C56.1016 42.0182 56.1016 42.2786 56.0234 42.4609C55.9714 42.6172 55.9583 42.8646 55.9844 43.2031C55.5938 44.2448 54.9948 44.9349 54.1875 45.2734C53.4062 45.638 52.6641 45.5729 51.9609 45.0781C51.6745 44.8698 51.4271 44.6094 51.2188 44.2969C51.0365 43.9583 50.776 43.75 50.4375 43.6719C50.5156 43.2292 50.4766 42.7865 50.3203 42.3438C50.1641 41.901 49.9948 41.6667 49.8125 41.6406C49.7344 41.0938 49.6172 40.5078 49.4609 39.8828C49.3047 39.2578 49.1615 38.6328 49.0312 38.0078C48.901 37.3568 48.7839 36.7318 48.6797 36.1328C48.6016 35.5078 48.5755 34.9349 48.6016 34.4141C48.6276 34.1536 48.5755 33.9193 48.4453 33.7109C48.3411 33.5026 48.263 33.2552 48.2109 32.9688C48.1068 32.3698 48.0677 31.7448 48.0938 31.0938C48.1458 30.4167 48.1719 29.7786 48.1719 29.1797C48.1719 28.6068 48.1328 27.9948 48.0547 27.3438C48.0026 26.6667 47.9505 26.0286 47.8984 25.4297C47.8464 24.8047 47.8203 24.2448 47.8203 23.75C47.8203 23.2292 47.8854 22.8255 48.0156 22.5391C48.1719 22.2266 48.3802 21.9792 48.6406 21.7969C48.9271 21.5885 49.1875 21.3672 49.4219 21.1328C49.9948 21.1849 50.4505 21.4193 50.7891 21.8359C51.1276 22.2526 51.2578 22.6432 51.1797 23.0078C51.7266 23.3464 52.1562 23.7891 52.4688 24.3359C52.8073 24.8568 53.0677 25.4557 53.25 26.1328C53.4583 26.7839 53.6016 27.487 53.6797 28.2422C53.7578 28.9714 53.8229 29.7005 53.875 30.4297C53.9271 31.1328 53.9792 31.8099 54.0312 32.4609C54.0833 33.112 54.1875 33.6719 54.3438 34.1406C55.3073 32.7604 56.1146 31.5365 56.7656 30.4688C57.4167 29.375 58.0807 28.3333 58.7578 27.3438C59.4349 26.3542 60.1901 25.3516 61.0234 24.3359C61.8568 23.3203 62.9375 22.1745 64.2656 20.8984C64.526 20.9245 64.7344 20.9766 64.8906 21.0547C65.0729 21.1328 65.2292 21.1979 65.3594 21.25C65.4896 21.3021 65.6458 21.3542 65.8281 21.4062C66.0104 21.4323 66.2578 21.4193 66.5703 21.3672C66.6745 21.6276 66.7526 21.8229 66.8047 21.9531C66.8568 22.0573 66.8958 22.1745 66.9219 22.3047C66.974 22.4089 67.026 22.5521 67.0781 22.7344C67.1562 22.9167 67.2734 23.1771 67.4297 23.5156C67.5078 23.5938 67.5339 23.6979 67.5078 23.8281C67.4818 23.9583 67.4557 24.0885 67.4297 24.2188C67.4297 24.3229 67.4297 24.401 67.4297 24.4531C67.4297 24.5052 67.4948 24.5052 67.625 24.4531C67.5469 24.8177 67.4036 25.1562 67.1953 25.4688C67.013 25.7552 66.9349 26.1068 66.9609 26.5234C66.362 27.3047 65.6979 28.112 64.9688 28.9453C64.2656 29.7786 63.5495 30.638 62.8203 31.5234C62.1172 32.4089 61.4401 33.3464 60.7891 34.3359C60.138 35.2995 59.5781 36.3151 59.1094 37.3828C58.9792 37.3828 58.875 37.4219 58.7969 37.5C58.7448 37.5781 58.6927 37.6693 58.6406 37.7734C58.5885 37.8516 58.5234 37.9297 58.4453 38.0078C58.3932 38.0859 58.3151 38.125 58.2109 38.125ZM86.4141 23.0078C86.4401 23.1901 86.4401 23.3333 86.4141 23.4375C86.4141 23.5156 86.401 23.5938 86.375 23.6719C86.375 23.75 86.375 23.8411 86.375 23.9453C86.375 24.0234 86.401 24.1536 86.4531 24.3359C85.9062 25.2214 85.2682 25.8333 84.5391 26.1719C83.8359 26.4844 83.0677 26.7188 82.2344 26.875C81.401 27.0052 80.5417 27.1484 79.6562 27.3047C78.7969 27.4609 77.9375 27.7995 77.0781 28.3203C76.7396 28.1901 76.4271 28.1901 76.1406 28.3203C75.8802 28.4505 75.4896 28.4896 74.9688 28.4375C74.8125 28.5938 74.6172 28.7109 74.3828 28.7891C74.1484 28.8411 73.9141 28.9062 73.6797 28.9844C73.7839 29.2188 73.8229 29.4661 73.7969 29.7266C73.7969 29.9609 73.8359 30.1562 73.9141 30.3125C74.8255 30.3906 75.8281 30.3776 76.9219 30.2734C78.0417 30.1693 79.1354 30.1042 80.2031 30.0781C80.2292 30.2083 80.2161 30.2995 80.1641 30.3516C80.112 30.3776 80.099 30.4427 80.125 30.5469C80.3073 30.6771 80.4896 30.8464 80.6719 31.0547C80.8542 31.237 81.0365 31.4193 81.2188 31.6016C81.401 31.7839 81.5833 31.9401 81.7656 32.0703C81.974 32.1745 82.2083 32.2135 82.4688 32.1875C82.5729 32.3958 82.638 32.6302 82.6641 32.8906C82.7161 33.125 82.6901 33.3724 82.5859 33.6328C82.1693 33.9193 81.7526 34.2188 81.3359 34.5312C80.9193 34.8177 80.4766 35.0781 80.0078 35.3125C79.5651 35.5469 79.0833 35.7422 78.5625 35.8984C78.0677 36.0286 77.5078 36.0807 76.8828 36.0547C76.7526 36.0547 76.6484 36.0547 76.5703 36.0547C76.5182 36.0547 76.4401 36.0156 76.3359 35.9375C76.1276 36.0677 75.8281 36.1068 75.4375 36.0547C75.0729 36.0026 74.7865 36.0417 74.5781 36.1719C74.2917 36.0417 73.9401 35.9896 73.5234 36.0156C73.1328 36.0156 72.7812 35.9635 72.4688 35.8594C72.0521 36.4062 71.6745 36.9922 71.3359 37.6172C70.9974 38.2422 70.6979 38.9062 70.4375 39.6094C71.3229 39.7396 72.0521 39.7917 72.625 39.7656C73.224 39.7396 73.7839 39.7005 74.3047 39.6484C74.8255 39.5703 75.3594 39.5052 75.9062 39.4531C76.4531 39.375 77.1432 39.349 77.9766 39.375C78.4974 39.0885 79.1094 38.9062 79.8125 38.8281C80.5417 38.724 81.2057 38.5677 81.8047 38.3594C82.013 38.4375 82.1953 38.5807 82.3516 38.7891C82.5078 38.9714 82.651 39.1536 82.7812 39.3359C82.9375 39.4922 83.0938 39.6354 83.25 39.7656C83.4062 39.8958 83.6016 39.9479 83.8359 39.9219C83.9401 40.026 84.0052 40.1562 84.0312 40.3125C84.0833 40.4427 84.1224 40.5729 84.1484 40.7031C84.1745 40.8333 84.2135 40.9505 84.2656 41.0547C84.3438 41.1328 84.4609 41.1589 84.6172 41.1328C84.2266 41.9922 83.7708 42.6562 83.25 43.125C82.7552 43.5677 82.1823 43.9062 81.5312 44.1406C80.8802 44.375 80.151 44.5573 79.3438 44.6875C78.5625 44.8177 77.6901 44.974 76.7266 45.1562C76.4922 45.2083 76.2969 45.1953 76.1406 45.1172C75.9844 45.0651 75.8021 45.0391 75.5938 45.0391C74.9948 45.1693 74.2786 45.2865 73.4453 45.3906C72.612 45.4948 71.7656 45.5339 70.9062 45.5078C70.0469 45.4818 69.2266 45.3646 68.4453 45.1562C67.6641 44.974 67.026 44.6354 66.5312 44.1406C66.3229 43.9583 66.1797 43.75 66.1016 43.5156C66.0495 43.2552 65.8802 43.0599 65.5938 42.9297C65.5677 42.5911 65.5156 42.2135 65.4375 41.7969C65.3594 41.3802 65.2812 40.9505 65.2031 40.5078C65.125 40.0391 65.0599 39.5833 65.0078 39.1406C64.9818 38.6979 65.0078 38.2943 65.0859 37.9297C65.1641 37.5391 65.3203 37.1875 65.5547 36.875C65.8151 36.5625 65.9062 36.224 65.8281 35.8594C65.9583 35.8333 66.0365 35.7682 66.0625 35.6641C66.0885 35.5339 66.1927 35.4818 66.375 35.5078C66.5312 35.0391 66.7005 34.5964 66.8828 34.1797C67.0651 33.763 67.2474 33.3594 67.4297 32.9688C67.638 32.5781 67.8333 32.1875 68.0156 31.7969C68.224 31.3802 68.4193 30.9245 68.6016 30.4297C68.237 30.0911 67.9635 29.7266 67.7812 29.3359C67.625 28.9193 67.5078 28.5156 67.4297 28.125C67.3516 27.7083 67.2865 27.2917 67.2344 26.875C67.1823 26.4323 67.0911 25.9896 66.9609 25.5469C67.2214 25.1562 67.5339 24.8438 67.8984 24.6094C68.2891 24.349 68.7057 24.1406 69.1484 23.9844C69.5911 23.8281 70.0729 23.6979 70.5938 23.5938C71.1146 23.4896 71.6615 23.3724 72.2344 23.2422C73.276 22.9036 74.2005 22.6432 75.0078 22.4609C75.8411 22.2786 76.6484 22.1354 77.4297 22.0312C78.237 21.901 79.0703 21.7839 79.9297 21.6797C80.7891 21.5755 81.7656 21.4193 82.8594 21.2109C83.0938 21.4453 83.3151 21.5625 83.5234 21.5625C83.6276 21.3281 83.7448 21.263 83.875 21.3672C84.0312 21.4453 84.0964 21.3672 84.0703 21.1328C84.3307 21.5755 84.6562 21.9531 85.0469 22.2656C85.4635 22.5521 85.9193 22.7995 86.4141 23.0078ZM86.1016 27.4219C86.2839 26.875 86.5703 26.4062 86.9609 26.0156C87.3776 25.625 87.8203 25.2995 88.2891 25.0391C88.7839 24.7526 89.2917 24.5182 89.8125 24.3359C90.3333 24.1536 90.8281 23.9974 91.2969 23.8672C92.3385 23.4245 93.4453 23.0078 94.6172 22.6172C95.8151 22.2005 97.026 21.8359 98.25 21.5234C99.5 21.2109 100.776 21.0156 102.078 20.9375C103.38 20.8333 104.747 20.9896 106.18 21.4062C106.258 21.6667 106.375 21.9141 106.531 22.1484C106.688 22.3828 106.844 22.6172 107 22.8516C107.182 23.0859 107.339 23.3203 107.469 23.5547C107.599 23.763 107.677 23.9844 107.703 24.2188C107.964 24.4531 108.172 24.7135 108.328 25C108.484 25.2604 108.51 25.612 108.406 26.0547C108.146 26.263 107.885 26.4583 107.625 26.6406C107.391 26.7969 107.13 26.9401 106.844 27.0703C105.88 26.8359 104.904 26.7578 103.914 26.8359C102.924 26.9141 102.039 26.9792 101.258 27.0312C101.023 26.7969 100.737 26.6797 100.398 26.6797C100.086 26.6797 99.7474 26.7318 99.3828 26.8359C99.0443 26.9401 98.6927 27.0443 98.3281 27.1484C97.9896 27.2526 97.6641 27.2786 97.3516 27.2266C97.0911 27.4349 96.7656 27.5781 96.375 27.6562C96.0104 27.7083 95.6068 27.7604 95.1641 27.8125C95.138 27.9427 95.1641 28.0339 95.2422 28.0859C95.3203 28.112 95.3333 28.1901 95.2812 28.3203C95.4375 28.5026 95.6328 28.6328 95.8672 28.7109C96.1276 28.7891 96.388 28.8672 96.6484 28.9453C96.9349 29.0234 97.1823 29.1276 97.3906 29.2578C97.599 29.362 97.7422 29.5443 97.8203 29.8047C98.2109 29.8047 98.5495 29.8958 98.8359 30.0781C99.1224 30.2604 99.3568 30.4818 99.5391 30.7422C99.7214 31.0026 99.8516 31.2891 99.9297 31.6016C100.034 31.888 100.086 32.1484 100.086 32.3828C100.164 32.5911 100.255 32.6823 100.359 32.6562C100.464 32.6302 100.581 32.6823 100.711 32.8125C100.789 33.151 100.984 33.5026 101.297 33.8672C101.609 34.2057 101.857 34.5833 102.039 35C102.091 35.651 102.13 36.237 102.156 36.7578C102.182 37.2526 102.091 37.7604 101.883 38.2812C101.492 39.2448 100.945 40.1042 100.242 40.8594C99.5651 41.6146 98.7839 42.2917 97.8984 42.8906C97.0391 43.4635 96.1146 43.9583 95.125 44.375C94.1354 44.7917 93.1719 45.1432 92.2344 45.4297C92.1302 45.4036 92.026 45.4036 91.9219 45.4297C91.8177 45.4557 91.7917 45.3906 91.8438 45.2344C91.6354 45.4167 91.401 45.5339 91.1406 45.5859C90.9062 45.638 90.6458 45.651 90.3594 45.625C90.0729 45.625 89.7734 45.612 89.4609 45.5859C89.1745 45.5599 88.901 45.5729 88.6406 45.625C88.4583 45.4427 88.2891 45.2604 88.1328 45.0781C88.0026 44.9219 87.8984 44.7135 87.8203 44.4531C87.6901 44.4531 87.625 44.388 87.625 44.2578C87.651 44.1276 87.612 44.0625 87.5078 44.0625C87.6641 43.8021 87.7292 43.6589 87.7031 43.6328C87.7031 43.5807 87.6641 43.5417 87.5859 43.5156C87.5339 43.4896 87.4818 43.4635 87.4297 43.4375C87.3776 43.3854 87.3646 43.3203 87.3906 43.2422C87.4948 43.0339 87.5339 42.7995 87.5078 42.5391C87.4818 42.2526 87.4557 41.9661 87.4297 41.6797C87.4036 41.3932 87.4167 41.1198 87.4688 40.8594C87.5469 40.599 87.7422 40.3906 88.0547 40.2344C88.9401 40.3385 89.7734 40.3125 90.5547 40.1562C91.362 39.974 92.1172 39.7266 92.8203 39.4141C93.5234 39.1016 94.1875 38.763 94.8125 38.3984C95.4635 38.0339 96.1016 37.7083 96.7266 37.4219C96.8047 37.1875 96.9089 36.9922 97.0391 36.8359C97.1953 36.6797 97.3516 36.5365 97.5078 36.4062C97.6641 36.276 97.8073 36.1328 97.9375 35.9766C98.0677 35.8203 98.1589 35.625 98.2109 35.3906C98.237 35.2083 98.1849 35.1042 98.0547 35.0781C97.9505 35.026 97.8984 34.9219 97.8984 34.7656L97.4688 34.6484C96.974 34.362 96.4141 34.1276 95.7891 33.9453C95.1641 33.737 94.6302 33.5156 94.1875 33.2812C93.901 33.4375 93.6276 33.4766 93.3672 33.3984C93.1328 33.3203 92.8203 33.2422 92.4297 33.1641C91.5443 33.112 90.6849 33.0208 89.8516 32.8906C89.0443 32.7604 88.263 32.526 87.5078 32.1875C87.4557 32.0573 87.3906 31.9401 87.3125 31.8359C87.2344 31.7318 87.0911 31.7057 86.8828 31.7578C86.7266 31.5495 86.5703 31.3542 86.4141 31.1719C86.2578 30.9635 86.1146 30.7422 85.9844 30.5078C86.0365 30.1953 86.0755 29.9349 86.1016 29.7266C86.1276 29.4922 86.0495 29.2708 85.8672 29.0625C85.9714 28.724 86.0495 28.4505 86.1016 28.2422C86.1536 28.0339 86.1536 27.7604 86.1016 27.4219ZM126.258 26.2109C125.607 26.2109 124.904 26.263 124.148 26.3672C123.393 26.4453 122.651 26.5365 121.922 26.6406C121.401 26.7188 120.893 26.7839 120.398 26.8359C119.93 26.888 119.5 26.9271 119.109 26.9531C118.927 27.526 118.745 28.0339 118.562 28.4766C118.38 28.9193 118.185 29.349 117.977 29.7656C117.768 30.2083 117.573 30.6641 117.391 31.1328C117.234 31.5755 117.078 32.0573 116.922 32.5781C116.661 32.9948 116.44 33.3854 116.258 33.75C116.102 34.0885 115.971 34.4792 115.867 34.9219C115.555 35.3125 115.32 35.7292 115.164 36.1719C115.008 36.5885 114.891 36.9531 114.812 37.2656L114.656 37.7344C114.5 37.8906 114.409 38.0208 114.383 38.125C114.357 38.2031 114.292 38.2812 114.188 38.3594C114.161 38.6458 114.07 38.9323 113.914 39.2188C113.862 39.349 113.823 39.4792 113.797 39.6094C113.771 39.7135 113.758 39.7917 113.758 39.8438C113.758 40.1042 113.693 40.2734 113.562 40.3516C113.589 40.4818 113.589 40.625 113.562 40.7812C113.536 40.9115 113.51 41.0417 113.484 41.1719C113.406 41.4844 113.38 41.7318 113.406 41.9141C113.484 42.0182 113.549 42.1094 113.602 42.1875C113.68 42.2656 113.732 42.3698 113.758 42.5C113.914 42.6042 114.031 42.6693 114.109 42.6953C114.214 42.7734 114.37 42.8646 114.578 42.9688L114.93 43.3594C115.06 44.1146 114.943 44.7135 114.578 45.1562C114.188 45.651 113.523 45.8984 112.586 45.8984H112.117C111.987 45.7682 111.909 45.6641 111.883 45.5859C111.674 45.5078 111.505 45.4427 111.375 45.3906C111.245 45.3385 111.128 45.2344 111.023 45.0781C110.685 44.9219 110.411 44.7917 110.203 44.6875L109.852 44.4922C109.852 44.2057 109.852 44.0495 109.852 44.0234C109.669 43.7891 109.526 43.5286 109.422 43.2422C109.344 42.9557 109.279 42.6693 109.227 42.3828C109.174 42.1484 109.109 41.9271 109.031 41.7188C108.979 41.5104 108.901 41.3281 108.797 41.1719C108.745 39.6615 108.888 38.3854 109.227 37.3438C109.565 36.3021 109.917 35.2995 110.281 34.3359C110.49 33.8151 110.698 33.2943 110.906 32.7734C111.115 32.2266 111.297 31.6667 111.453 31.0938L111.805 30.7031C111.987 30.2865 112.13 29.9479 112.234 29.6875C112.365 29.401 112.495 29.1146 112.625 28.8281C112.703 28.6458 112.768 28.4766 112.82 28.3203C112.898 28.138 112.964 27.9818 113.016 27.8516C112.859 27.8516 112.716 27.8646 112.586 27.8906C112.456 27.8906 112.326 27.9036 112.195 27.9297C112.039 27.9557 111.896 27.9818 111.766 28.0078C111.635 28.0078 111.505 28.0078 111.375 28.0078C111.193 28.0078 111.062 27.9948 110.984 27.9688C110.698 28.099 110.385 28.1641 110.047 28.1641H109.656C109.578 28.1641 109.5 28.1641 109.422 28.1641C109.37 28.138 109.318 28.125 109.266 28.125C109.005 28.125 108.797 28.1641 108.641 28.2422C108.328 28.2422 108.029 28.2422 107.742 28.2422H107.352C107.299 28.2422 107.234 28.2552 107.156 28.2812C107.078 28.2812 107.013 28.2812 106.961 28.2812C106.779 28.2812 106.583 28.2682 106.375 28.2422C106.167 28.1901 105.945 28.099 105.711 27.9688C105.398 27.5521 105.19 27.3307 105.086 27.3047L104.734 26.8359C104.708 26.6797 104.669 26.5365 104.617 26.4062C104.565 26.25 104.513 26.0807 104.461 25.8984C104.357 25.638 104.253 25.3646 104.148 25.0781C104.07 24.7656 104.031 24.401 104.031 23.9844C104.057 23.776 104.109 23.6198 104.188 23.5156C104.266 23.4115 104.331 23.3203 104.383 23.2422L104.5 22.6562L105.008 22.6953H106.102C106.935 22.6953 107.781 22.6693 108.641 22.6172C109.5 22.5391 110.385 22.4609 111.297 22.3828C111.818 22.3307 112.339 22.2786 112.859 22.2266C113.406 22.1745 113.966 22.1224 114.539 22.0703C114.643 21.8359 114.747 21.6146 114.852 21.4062L115.242 21.2109C115.711 21.1849 116.036 21.25 116.219 21.4062C116.427 21.5365 116.596 21.6667 116.727 21.7969C117.299 21.7448 117.872 21.6927 118.445 21.6406C119.044 21.5625 119.643 21.4714 120.242 21.3672C121.128 21.237 122.013 21.1198 122.898 21.0156C123.81 20.9115 124.682 20.8594 125.516 20.8594C125.88 20.8594 126.232 20.8724 126.57 20.8984C126.909 20.9245 127.221 20.9635 127.508 21.0156L127.898 21.2891C127.977 21.4453 128.081 21.5885 128.211 21.7188C128.367 21.849 128.523 21.9792 128.68 22.1094C128.992 22.3958 129.305 22.7344 129.617 23.125C129.93 23.5156 130.047 24.0885 129.969 24.8438C129.76 25.1562 129.604 25.3385 129.5 25.3906L129.148 25.8594L128.758 25.8203C128.602 25.8203 128.458 25.8464 128.328 25.8984C128.198 25.9245 128.068 25.9635 127.938 26.0156C127.833 26.0677 127.729 26.1198 127.625 26.1719C127.521 26.1979 127.404 26.224 127.273 26.25C127.039 26.25 126.844 26.25 126.688 26.25C126.557 26.224 126.414 26.2109 126.258 26.2109ZM138.602 43.6719C138.523 43.6979 138.471 43.6719 138.445 43.5938C138.419 43.5156 138.406 43.4375 138.406 43.3594C138.432 43.2812 138.471 43.2161 138.523 43.1641C138.602 43.112 138.693 43.112 138.797 43.1641C138.458 42.7474 138.237 42.3698 138.133 42.0312C138.055 41.6927 137.885 41.276 137.625 40.7812C137.703 40.7031 137.755 40.599 137.781 40.4688C137.807 40.3125 137.846 40.1693 137.898 40.0391C137.924 39.9089 137.964 39.8177 138.016 39.7656C138.094 39.6875 138.185 39.7005 138.289 39.8047C138.237 39.5182 138.237 39.2839 138.289 39.1016C138.341 38.9193 138.393 38.75 138.445 38.5938C138.523 38.4375 138.576 38.2812 138.602 38.125C138.628 37.9688 138.589 37.7865 138.484 37.5781C138.979 36.901 139.305 36.1719 139.461 35.3906C139.617 34.5833 139.708 33.8542 139.734 33.2031C139.969 32.9688 140.164 32.6562 140.32 32.2656C140.503 31.875 140.633 31.4714 140.711 31.0547C140.789 30.638 140.828 30.2344 140.828 29.8438C140.828 29.4271 140.776 29.1016 140.672 28.8672C140.698 28.763 140.75 28.7109 140.828 28.7109C140.932 28.6849 141.049 28.6849 141.18 28.7109C141.362 27.6693 141.479 26.5104 141.531 25.2344C141.609 23.9583 141.74 22.7344 141.922 21.5625C142.13 20.3646 142.456 19.3229 142.898 18.4375C143.341 17.526 144.044 16.9401 145.008 16.6797C145.19 17.3307 145.424 17.9036 145.711 18.3984C146.023 18.8932 146.349 19.375 146.688 19.8438C147.052 20.3125 147.417 20.7812 147.781 21.25C148.146 21.7188 148.484 22.2396 148.797 22.8125C148.771 23.4115 148.706 24.1016 148.602 24.8828C148.523 25.6641 148.406 26.4583 148.25 27.2656C148.12 28.0729 147.977 28.8542 147.82 29.6094C147.69 30.3646 147.56 31.0026 147.43 31.5234C147.456 31.6536 147.547 31.7448 147.703 31.7969C147.859 31.8229 147.885 31.9661 147.781 32.2266C148.536 32.0443 149.318 31.875 150.125 31.7188C150.958 31.5365 151.766 31.3672 152.547 31.2109C153.354 31.0286 154.135 30.8203 154.891 30.5859C155.672 30.3516 156.401 30.0651 157.078 29.7266C157.234 28.4766 157.43 27.2396 157.664 26.0156C157.898 24.7917 157.924 23.5547 157.742 22.3047C157.898 22.1745 158.029 22.0182 158.133 21.8359C158.237 21.6536 158.393 21.5365 158.602 21.4844C158.445 20.8854 158.38 20.2604 158.406 19.6094C158.432 18.9323 158.536 18.3073 158.719 17.7344C158.927 17.1615 159.227 16.6667 159.617 16.25C160.008 15.8073 160.49 15.5208 161.062 15.3906C161.401 15.8854 161.701 16.4193 161.961 16.9922C162.221 17.5651 162.482 18.151 162.742 18.75C163.003 19.3229 163.276 19.8698 163.562 20.3906C163.875 20.9115 164.266 21.3542 164.734 21.7188C164.812 22.6302 164.878 23.5677 164.93 24.5312C164.982 25.4688 165.021 26.4453 165.047 27.4609C164.812 28.6328 164.539 29.7786 164.227 30.8984C163.94 31.9922 163.732 33.1641 163.602 34.4141C163.393 34.6484 163.224 34.9349 163.094 35.2734C162.964 35.5859 162.833 35.9115 162.703 36.25C162.599 36.5625 162.469 36.875 162.312 37.1875C162.156 37.5 161.961 37.7604 161.727 37.9688C161.831 38.3333 161.844 38.6849 161.766 39.0234C161.714 39.3359 161.805 39.7135 162.039 40.1562C162.091 40.9635 161.987 41.6406 161.727 42.1875C161.492 42.7083 161.154 43.1641 160.711 43.5547C160.294 43.9193 159.799 44.2188 159.227 44.4531C158.68 44.6615 158.133 44.8568 157.586 45.0391C157.326 44.8828 157.078 44.7266 156.844 44.5703C156.635 44.388 156.375 44.2578 156.062 44.1797L156.258 43.8281C155.737 43.3073 155.281 42.7604 154.891 42.1875C154.526 41.5885 154.357 40.9115 154.383 40.1562C154.383 40.1302 154.409 39.9609 154.461 39.6484C154.513 39.3099 154.565 38.9583 154.617 38.5938C154.695 38.2292 154.76 37.8906 154.812 37.5781C154.891 37.2396 154.93 37.0573 154.93 37.0312C154.201 37.1094 153.445 37.2786 152.664 37.5391C151.883 37.7995 151.115 38.099 150.359 38.4375C149.63 38.75 148.94 39.0885 148.289 39.4531C147.664 39.7917 147.156 40.0781 146.766 40.3125C146.766 40.3906 146.701 40.612 146.57 40.9766C146.44 41.3411 146.284 41.7318 146.102 42.1484C145.919 42.5391 145.711 42.8906 145.477 43.2031C145.268 43.5156 145.047 43.6589 144.812 43.6328C144.865 43.763 144.917 43.8672 144.969 43.9453C145.021 43.9974 145.021 44.1146 144.969 44.2969C144.526 44.4271 144.122 44.5964 143.758 44.8047C143.419 45.013 143.068 45.1823 142.703 45.3125C142.339 45.4688 141.935 45.5339 141.492 45.5078C141.076 45.5078 140.568 45.3516 139.969 45.0391C139.969 44.8568 139.891 44.7005 139.734 44.5703C139.578 44.4141 139.409 44.2839 139.227 44.1797C139.07 44.0755 138.927 43.9844 138.797 43.9062C138.667 43.8281 138.602 43.75 138.602 43.6719ZM187.625 23.0078C187.651 23.1901 187.651 23.3333 187.625 23.4375C187.625 23.5156 187.612 23.5938 187.586 23.6719C187.586 23.75 187.586 23.8411 187.586 23.9453C187.586 24.0234 187.612 24.1536 187.664 24.3359C187.117 25.2214 186.479 25.8333 185.75 26.1719C185.047 26.4844 184.279 26.7188 183.445 26.875C182.612 27.0052 181.753 27.1484 180.867 27.3047C180.008 27.4609 179.148 27.7995 178.289 28.3203C177.951 28.1901 177.638 28.1901 177.352 28.3203C177.091 28.4505 176.701 28.4896 176.18 28.4375C176.023 28.5938 175.828 28.7109 175.594 28.7891C175.359 28.8411 175.125 28.9062 174.891 28.9844C174.995 29.2188 175.034 29.4661 175.008 29.7266C175.008 29.9609 175.047 30.1562 175.125 30.3125C176.036 30.3906 177.039 30.3776 178.133 30.2734C179.253 30.1693 180.346 30.1042 181.414 30.0781C181.44 30.2083 181.427 30.2995 181.375 30.3516C181.323 30.3776 181.31 30.4427 181.336 30.5469C181.518 30.6771 181.701 30.8464 181.883 31.0547C182.065 31.237 182.247 31.4193 182.43 31.6016C182.612 31.7839 182.794 31.9401 182.977 32.0703C183.185 32.1745 183.419 32.2135 183.68 32.1875C183.784 32.3958 183.849 32.6302 183.875 32.8906C183.927 33.125 183.901 33.3724 183.797 33.6328C183.38 33.9193 182.964 34.2188 182.547 34.5312C182.13 34.8177 181.688 35.0781 181.219 35.3125C180.776 35.5469 180.294 35.7422 179.773 35.8984C179.279 36.0286 178.719 36.0807 178.094 36.0547C177.964 36.0547 177.859 36.0547 177.781 36.0547C177.729 36.0547 177.651 36.0156 177.547 35.9375C177.339 36.0677 177.039 36.1068 176.648 36.0547C176.284 36.0026 175.997 36.0417 175.789 36.1719C175.503 36.0417 175.151 35.9896 174.734 36.0156C174.344 36.0156 173.992 35.9635 173.68 35.8594C173.263 36.4062 172.885 36.9922 172.547 37.6172C172.208 38.2422 171.909 38.9062 171.648 39.6094C172.534 39.7396 173.263 39.7917 173.836 39.7656C174.435 39.7396 174.995 39.7005 175.516 39.6484C176.036 39.5703 176.57 39.5052 177.117 39.4531C177.664 39.375 178.354 39.349 179.188 39.375C179.708 39.0885 180.32 38.9062 181.023 38.8281C181.753 38.724 182.417 38.5677 183.016 38.3594C183.224 38.4375 183.406 38.5807 183.562 38.7891C183.719 38.9714 183.862 39.1536 183.992 39.3359C184.148 39.4922 184.305 39.6354 184.461 39.7656C184.617 39.8958 184.812 39.9479 185.047 39.9219C185.151 40.026 185.216 40.1562 185.242 40.3125C185.294 40.4427 185.333 40.5729 185.359 40.7031C185.385 40.8333 185.424 40.9505 185.477 41.0547C185.555 41.1328 185.672 41.1589 185.828 41.1328C185.438 41.9922 184.982 42.6562 184.461 43.125C183.966 43.5677 183.393 43.9062 182.742 44.1406C182.091 44.375 181.362 44.5573 180.555 44.6875C179.773 44.8177 178.901 44.974 177.938 45.1562C177.703 45.2083 177.508 45.1953 177.352 45.1172C177.195 45.0651 177.013 45.0391 176.805 45.0391C176.206 45.1693 175.49 45.2865 174.656 45.3906C173.823 45.4948 172.977 45.5339 172.117 45.5078C171.258 45.4818 170.438 45.3646 169.656 45.1562C168.875 44.974 168.237 44.6354 167.742 44.1406C167.534 43.9583 167.391 43.75 167.312 43.5156C167.26 43.2552 167.091 43.0599 166.805 42.9297C166.779 42.5911 166.727 42.2135 166.648 41.7969C166.57 41.3802 166.492 40.9505 166.414 40.5078C166.336 40.0391 166.271 39.5833 166.219 39.1406C166.193 38.6979 166.219 38.2943 166.297 37.9297C166.375 37.5391 166.531 37.1875 166.766 36.875C167.026 36.5625 167.117 36.224 167.039 35.8594C167.169 35.8333 167.247 35.7682 167.273 35.6641C167.299 35.5339 167.404 35.4818 167.586 35.5078C167.742 35.0391 167.911 34.5964 168.094 34.1797C168.276 33.763 168.458 33.3594 168.641 32.9688C168.849 32.5781 169.044 32.1875 169.227 31.7969C169.435 31.3802 169.63 30.9245 169.812 30.4297C169.448 30.0911 169.174 29.7266 168.992 29.3359C168.836 28.9193 168.719 28.5156 168.641 28.125C168.562 27.7083 168.497 27.2917 168.445 26.875C168.393 26.4323 168.302 25.9896 168.172 25.5469C168.432 25.1562 168.745 24.8438 169.109 24.6094C169.5 24.349 169.917 24.1406 170.359 23.9844C170.802 23.8281 171.284 23.6979 171.805 23.5938C172.326 23.4896 172.872 23.3724 173.445 23.2422C174.487 22.9036 175.411 22.6432 176.219 22.4609C177.052 22.2786 177.859 22.1354 178.641 22.0312C179.448 21.901 180.281 21.7839 181.141 21.6797C182 21.5755 182.977 21.4193 184.07 21.2109C184.305 21.4453 184.526 21.5625 184.734 21.5625C184.839 21.3281 184.956 21.263 185.086 21.3672C185.242 21.4453 185.307 21.3672 185.281 21.1328C185.542 21.5755 185.867 21.9531 186.258 22.2656C186.674 22.5521 187.13 22.7995 187.625 23.0078ZM192.586 40.9375C192.299 41.9792 192.039 42.7734 191.805 43.3203C191.596 43.8411 191.271 44.388 190.828 44.9609C190.49 44.9089 190.255 44.9479 190.125 45.0781C189.995 45.2083 189.852 45.3255 189.695 45.4297C189.461 45.4818 189.292 45.4818 189.188 45.4297C189.083 45.3776 188.992 45.3125 188.914 45.2344C188.836 45.1823 188.732 45.1172 188.602 45.0391C188.497 44.987 188.328 44.9609 188.094 44.9609C188.042 44.7526 187.977 44.5573 187.898 44.375C187.846 44.1927 187.677 44.1276 187.391 44.1797C187.443 43.9714 187.456 43.8021 187.43 43.6719C187.404 43.5156 187.365 43.3854 187.312 43.2812C187.286 43.151 187.26 43.0339 187.234 42.9297C187.208 42.7995 187.221 42.6432 187.273 42.4609C187.143 42.4609 187.039 42.3698 186.961 42.1875C186.883 42.0052 186.792 41.8229 186.688 41.6406C186.766 41.1719 186.844 40.7292 186.922 40.3125C187 39.8958 187.091 39.5052 187.195 39.1406C187.326 38.776 187.43 38.4115 187.508 38.0469C187.586 37.6823 187.547 37.3047 187.391 36.9141C187.495 36.9922 187.573 36.9792 187.625 36.875C187.677 36.7448 187.716 36.5885 187.742 36.4062C187.768 36.1979 187.781 36.0026 187.781 35.8203C187.781 35.612 187.768 35.4427 187.742 35.3125C188.003 34.6354 188.211 33.9453 188.367 33.2422C188.549 32.513 188.706 31.7969 188.836 31.0938C188.992 30.3906 189.148 29.7005 189.305 29.0234C189.461 28.3464 189.669 27.7214 189.93 27.1484C190.216 27.0964 190.529 27.1354 190.867 27.2656C191.232 27.3698 191.453 27.513 191.531 27.6953C192.208 27.1745 192.807 26.5495 193.328 25.8203C193.849 25.0651 194.383 24.3359 194.93 23.6328C195.477 22.9297 196.076 22.3047 196.727 21.7578C197.404 21.2109 198.25 20.8854 199.266 20.7812C199.786 21.1719 200.359 21.5755 200.984 21.9922C201.635 22.3828 202.169 22.9036 202.586 23.5547C202.794 23.6589 202.964 23.776 203.094 23.9062C203.25 24.0104 203.432 24.1276 203.641 24.2578V24.7266C203.953 25.013 204.201 25.3516 204.383 25.7422C204.591 26.1068 204.773 26.5104 204.93 26.9531C205.086 27.3698 205.242 27.7995 205.398 28.2422C205.555 28.6589 205.737 29.0625 205.945 29.4531C205.893 29.5833 205.867 29.7005 205.867 29.8047C205.867 29.8828 205.88 29.974 205.906 30.0781C205.958 30.1823 205.997 30.2865 206.023 30.3906C206.049 30.4948 206.049 30.638 206.023 30.8203C205.945 31.9661 205.568 32.8906 204.891 33.5938C204.24 34.2969 203.445 34.8828 202.508 35.3516C201.57 35.7943 200.568 36.1719 199.5 36.4844C198.432 36.7969 197.469 37.1354 196.609 37.5C196.609 37.6042 196.648 37.6562 196.727 37.6562C196.831 37.6562 196.87 37.7214 196.844 37.8516C197.469 38.2422 197.964 38.5547 198.328 38.7891C198.693 39.0234 199.031 39.2188 199.344 39.375C199.682 39.5312 200.034 39.6745 200.398 39.8047C200.789 39.9089 201.323 40.0391 202 40.1953C202.677 40.3516 203.198 40.4818 203.562 40.5859C203.953 40.6641 204.305 40.7422 204.617 40.8203C204.93 40.8724 205.242 40.9245 205.555 40.9766C205.893 41.0026 206.362 41.0417 206.961 41.0938C207.195 41.3281 207.391 41.6146 207.547 41.9531C207.729 42.2656 207.846 42.5911 207.898 42.9297C207.951 43.2422 207.964 43.5547 207.938 43.8672C207.911 44.1536 207.82 44.388 207.664 44.5703C207.69 44.6484 207.742 44.6875 207.82 44.6875C207.924 44.6615 208.029 44.6615 208.133 44.6875C207.977 44.7917 207.846 44.9219 207.742 45.0781C207.638 45.2344 207.534 45.3906 207.43 45.5469C207.326 45.7031 207.208 45.8333 207.078 45.9375C206.948 46.0677 206.766 46.1458 206.531 46.1719C205.724 46.4844 204.708 46.4974 203.484 46.2109C202.26 45.9505 200.711 45.4557 198.836 44.7266C197.898 44.362 197.13 44.0495 196.531 43.7891C195.958 43.5026 195.451 43.2292 195.008 42.9688C194.591 42.6823 194.201 42.3828 193.836 42.0703C193.497 41.7578 193.081 41.3802 192.586 40.9375ZM198.172 27.5391C197.885 27.9557 197.56 28.3333 197.195 28.6719C196.857 29.0104 196.518 29.362 196.18 29.7266C195.867 30.0651 195.581 30.4557 195.32 30.8984C195.06 31.3151 194.878 31.8099 194.773 32.3828C195.685 32.2786 196.635 32.0312 197.625 31.6406C198.615 31.224 199.552 30.8333 200.438 30.4688C200.333 29.6615 200.047 29.0104 199.578 28.5156C199.135 28.0208 198.667 27.6953 198.172 27.5391ZM230.711 33.2812C230.685 33.5938 230.711 33.8932 230.789 34.1797C230.867 34.4661 230.958 34.7526 231.062 35.0391C231.193 35.2995 231.31 35.5729 231.414 35.8594C231.518 36.1458 231.596 36.4323 231.648 36.7188C231.701 37.0833 231.701 37.487 231.648 37.9297C231.596 38.3464 231.505 38.763 231.375 39.1797C231.245 39.5703 231.076 39.9349 230.867 40.2734C230.659 40.5859 230.411 40.8203 230.125 40.9766C229.76 41.4453 229.318 41.8099 228.797 42.0703C228.276 42.3307 227.794 42.6432 227.352 43.0078C227.065 43.1901 226.74 43.3203 226.375 43.3984C226.036 43.4766 225.685 43.5547 225.32 43.6328C225.034 43.7891 224.695 43.9583 224.305 44.1406C223.914 44.2969 223.51 44.4531 223.094 44.6094C222.677 44.7396 222.26 44.8438 221.844 44.9219C221.427 44.974 221.062 44.987 220.75 44.9609C219.969 45.2474 219.201 45.4297 218.445 45.5078C217.716 45.612 216.857 45.5599 215.867 45.3516C214.93 45.4818 214.057 45.4427 213.25 45.2344C212.469 45.026 211.766 44.7005 211.141 44.2578C210.542 43.7891 210.008 43.2422 209.539 42.6172C209.096 41.9661 208.732 41.2891 208.445 40.5859C208.237 39.1016 208.289 37.7604 208.602 36.5625C208.914 35.3385 209.357 34.2188 209.93 33.2031C210.529 32.1615 211.206 31.2109 211.961 30.3516C212.716 29.4661 213.445 28.6068 214.148 27.7734C214.305 27.8255 214.422 27.8255 214.5 27.7734C214.604 27.6953 214.695 27.6042 214.773 27.5C214.852 27.3698 214.93 27.2526 215.008 27.1484C215.112 27.0443 215.229 26.9792 215.359 26.9531C215.542 26.5625 215.802 26.276 216.141 26.0938C216.505 25.8854 216.792 25.599 217 25.2344C217.234 25.1823 217.43 25.1042 217.586 25C217.742 24.8958 217.885 24.7786 218.016 24.6484C218.172 24.5182 218.328 24.401 218.484 24.2969C218.641 24.1667 218.823 24.0755 219.031 24.0234V23.5938C219.5 23.3854 219.839 23.151 220.047 22.8906C220.281 22.6042 220.555 22.2656 220.867 21.875C221.102 21.849 221.284 21.8359 221.414 21.8359C221.57 21.8359 221.792 21.8099 222.078 21.7578C222.286 21.3932 222.469 21.1198 222.625 20.9375C222.807 20.7552 223.068 20.5599 223.406 20.3516C223.719 20.5078 224.057 20.612 224.422 20.6641C224.812 20.7161 225.151 20.8854 225.438 21.1719C225.464 21.4323 225.542 21.6406 225.672 21.7969C225.802 21.9271 225.945 22.0573 226.102 22.1875C226.258 22.2917 226.401 22.4089 226.531 22.5391C226.688 22.6693 226.792 22.8516 226.844 23.0859C226.948 23.112 227.013 23.099 227.039 23.0469C227.091 22.9948 227.169 22.9818 227.273 23.0078C227.352 23.3724 227.443 23.6198 227.547 23.75C227.651 23.8542 227.755 24.0755 227.859 24.4141C227.729 24.6745 227.625 24.9479 227.547 25.2344C227.495 25.4948 227.339 25.6901 227.078 25.8203C227.052 26.0026 227.104 26.1068 227.234 26.1328C227.365 26.1328 227.443 26.1979 227.469 26.3281C227.495 26.5625 227.456 26.7318 227.352 26.8359C227.977 27.8516 228.536 28.9323 229.031 30.0781C229.526 31.1979 230.086 32.2656 230.711 33.2812ZM225.828 36.9922C225.932 36.7057 226.062 36.4714 226.219 36.2891C226.401 36.1068 226.505 35.8333 226.531 35.4688C226.401 35.2604 226.323 35.1042 226.297 35C226.271 34.8698 226.258 34.6745 226.258 34.4141C225.685 33.6068 225.19 32.7474 224.773 31.8359C224.357 30.8984 223.888 30.026 223.367 29.2188C223.315 29.3229 223.224 29.4271 223.094 29.5312C222.964 29.6354 222.82 29.6094 222.664 29.4531C222.612 29.6615 222.521 29.8177 222.391 29.9219C222.26 30 222.117 30.0391 221.961 30.0391C221.805 30.013 221.635 29.974 221.453 29.9219C221.297 29.8438 221.154 29.7526 221.023 29.6484C220.268 30.2474 219.513 30.8333 218.758 31.4062C218.003 31.9792 217.326 32.6432 216.727 33.3984C216.622 33.4505 216.557 33.4766 216.531 33.4766C216.505 33.4505 216.427 33.4635 216.297 33.5156C216.089 34.0104 215.828 34.4661 215.516 34.8828C215.229 35.2734 214.943 35.6771 214.656 36.0938C214.37 36.5104 214.122 36.9531 213.914 37.4219C213.706 37.8906 213.589 38.4375 213.562 39.0625C214.005 39.4271 214.526 39.6484 215.125 39.7266C215.724 39.8047 216.336 39.8177 216.961 39.7656C217.612 39.7135 218.237 39.6354 218.836 39.5312C219.461 39.401 220.034 39.3359 220.555 39.3359C221.648 39.0755 222.586 38.737 223.367 38.3203C224.148 37.8776 224.969 37.4349 225.828 36.9922ZM254.891 23.0078C254.917 23.1901 254.917 23.3333 254.891 23.4375C254.891 23.5156 254.878 23.5938 254.852 23.6719C254.852 23.75 254.852 23.8411 254.852 23.9453C254.852 24.0234 254.878 24.1536 254.93 24.3359C254.383 25.2214 253.745 25.8333 253.016 26.1719C252.312 26.4844 251.544 26.7188 250.711 26.875C249.878 27.0052 249.018 27.1484 248.133 27.3047C247.273 27.4609 246.414 27.7995 245.555 28.3203C245.216 28.1901 244.904 28.1901 244.617 28.3203C244.357 28.4505 243.966 28.4896 243.445 28.4375C243.289 28.5938 243.094 28.7109 242.859 28.7891C242.625 28.8411 242.391 28.9062 242.156 28.9844C242.26 29.2188 242.299 29.4661 242.273 29.7266C242.273 29.9609 242.312 30.1562 242.391 30.3125C243.302 30.3906 244.305 30.3776 245.398 30.2734C246.518 30.1693 247.612 30.1042 248.68 30.0781C248.706 30.2083 248.693 30.2995 248.641 30.3516C248.589 30.3776 248.576 30.4427 248.602 30.5469C248.784 30.6771 248.966 30.8464 249.148 31.0547C249.331 31.237 249.513 31.4193 249.695 31.6016C249.878 31.7839 250.06 31.9401 250.242 32.0703C250.451 32.1745 250.685 32.2135 250.945 32.1875C251.049 32.3958 251.115 32.6302 251.141 32.8906C251.193 33.125 251.167 33.3724 251.062 33.6328C250.646 33.9193 250.229 34.2188 249.812 34.5312C249.396 34.8177 248.953 35.0781 248.484 35.3125C248.042 35.5469 247.56 35.7422 247.039 35.8984C246.544 36.0286 245.984 36.0807 245.359 36.0547C245.229 36.0547 245.125 36.0547 245.047 36.0547C244.995 36.0547 244.917 36.0156 244.812 35.9375C244.604 36.0677 244.305 36.1068 243.914 36.0547C243.549 36.0026 243.263 36.0417 243.055 36.1719C242.768 36.0417 242.417 35.9896 242 36.0156C241.609 36.0156 241.258 35.9635 240.945 35.8594C240.529 36.4062 240.151 36.9922 239.812 37.6172C239.474 38.2422 239.174 38.9062 238.914 39.6094C239.799 39.7396 240.529 39.7917 241.102 39.7656C241.701 39.7396 242.26 39.7005 242.781 39.6484C243.302 39.5703 243.836 39.5052 244.383 39.4531C244.93 39.375 245.62 39.349 246.453 39.375C246.974 39.0885 247.586 38.9062 248.289 38.8281C249.018 38.724 249.682 38.5677 250.281 38.3594C250.49 38.4375 250.672 38.5807 250.828 38.7891C250.984 38.9714 251.128 39.1536 251.258 39.3359C251.414 39.4922 251.57 39.6354 251.727 39.7656C251.883 39.8958 252.078 39.9479 252.312 39.9219C252.417 40.026 252.482 40.1562 252.508 40.3125C252.56 40.4427 252.599 40.5729 252.625 40.7031C252.651 40.8333 252.69 40.9505 252.742 41.0547C252.82 41.1328 252.938 41.1589 253.094 41.1328C252.703 41.9922 252.247 42.6562 251.727 43.125C251.232 43.5677 250.659 43.9062 250.008 44.1406C249.357 44.375 248.628 44.5573 247.82 44.6875C247.039 44.8177 246.167 44.974 245.203 45.1562C244.969 45.2083 244.773 45.1953 244.617 45.1172C244.461 45.0651 244.279 45.0391 244.07 45.0391C243.471 45.1693 242.755 45.2865 241.922 45.3906C241.089 45.4948 240.242 45.5339 239.383 45.5078C238.523 45.4818 237.703 45.3646 236.922 45.1562C236.141 44.974 235.503 44.6354 235.008 44.1406C234.799 43.9583 234.656 43.75 234.578 43.5156C234.526 43.2552 234.357 43.0599 234.07 42.9297C234.044 42.5911 233.992 42.2135 233.914 41.7969C233.836 41.3802 233.758 40.9505 233.68 40.5078C233.602 40.0391 233.536 39.5833 233.484 39.1406C233.458 38.6979 233.484 38.2943 233.562 37.9297C233.641 37.5391 233.797 37.1875 234.031 36.875C234.292 36.5625 234.383 36.224 234.305 35.8594C234.435 35.8333 234.513 35.7682 234.539 35.6641C234.565 35.5339 234.669 35.4818 234.852 35.5078C235.008 35.0391 235.177 34.5964 235.359 34.1797C235.542 33.763 235.724 33.3594 235.906 32.9688C236.115 32.5781 236.31 32.1875 236.492 31.7969C236.701 31.3802 236.896 30.9245 237.078 30.4297C236.714 30.0911 236.44 29.7266 236.258 29.3359C236.102 28.9193 235.984 28.5156 235.906 28.125C235.828 27.7083 235.763 27.2917 235.711 26.875C235.659 26.4323 235.568 25.9896 235.438 25.5469C235.698 25.1562 236.01 24.8438 236.375 24.6094C236.766 24.349 237.182 24.1406 237.625 23.9844C238.068 23.8281 238.549 23.6979 239.07 23.5938C239.591 23.4896 240.138 23.3724 240.711 23.2422C241.753 22.9036 242.677 22.6432 243.484 22.4609C244.318 22.2786 245.125 22.1354 245.906 22.0312C246.714 21.901 247.547 21.7839 248.406 21.6797C249.266 21.5755 250.242 21.4193 251.336 21.2109C251.57 21.4453 251.792 21.5625 252 21.5625C252.104 21.3281 252.221 21.263 252.352 21.3672C252.508 21.4453 252.573 21.3672 252.547 21.1328C252.807 21.5755 253.133 21.9531 253.523 22.2656C253.94 22.5521 254.396 22.7995 254.891 23.0078ZM254.578 27.4219C254.76 26.875 255.047 26.4062 255.438 26.0156C255.854 25.625 256.297 25.2995 256.766 25.0391C257.26 24.7526 257.768 24.5182 258.289 24.3359C258.81 24.1536 259.305 23.9974 259.773 23.8672C260.815 23.4245 261.922 23.0078 263.094 22.6172C264.292 22.2005 265.503 21.8359 266.727 21.5234C267.977 21.2109 269.253 21.0156 270.555 20.9375C271.857 20.8333 273.224 20.9896 274.656 21.4062C274.734 21.6667 274.852 21.9141 275.008 22.1484C275.164 22.3828 275.32 22.6172 275.477 22.8516C275.659 23.0859 275.815 23.3203 275.945 23.5547C276.076 23.763 276.154 23.9844 276.18 24.2188C276.44 24.4531 276.648 24.7135 276.805 25C276.961 25.2604 276.987 25.612 276.883 26.0547C276.622 26.263 276.362 26.4583 276.102 26.6406C275.867 26.7969 275.607 26.9401 275.32 27.0703C274.357 26.8359 273.38 26.7578 272.391 26.8359C271.401 26.9141 270.516 26.9792 269.734 27.0312C269.5 26.7969 269.214 26.6797 268.875 26.6797C268.562 26.6797 268.224 26.7318 267.859 26.8359C267.521 26.9401 267.169 27.0443 266.805 27.1484C266.466 27.2526 266.141 27.2786 265.828 27.2266C265.568 27.4349 265.242 27.5781 264.852 27.6562C264.487 27.7083 264.083 27.7604 263.641 27.8125C263.615 27.9427 263.641 28.0339 263.719 28.0859C263.797 28.112 263.81 28.1901 263.758 28.3203C263.914 28.5026 264.109 28.6328 264.344 28.7109C264.604 28.7891 264.865 28.8672 265.125 28.9453C265.411 29.0234 265.659 29.1276 265.867 29.2578C266.076 29.362 266.219 29.5443 266.297 29.8047C266.688 29.8047 267.026 29.8958 267.312 30.0781C267.599 30.2604 267.833 30.4818 268.016 30.7422C268.198 31.0026 268.328 31.2891 268.406 31.6016C268.51 31.888 268.562 32.1484 268.562 32.3828C268.641 32.5911 268.732 32.6823 268.836 32.6562C268.94 32.6302 269.057 32.6823 269.188 32.8125C269.266 33.151 269.461 33.5026 269.773 33.8672C270.086 34.2057 270.333 34.5833 270.516 35C270.568 35.651 270.607 36.237 270.633 36.7578C270.659 37.2526 270.568 37.7604 270.359 38.2812C269.969 39.2448 269.422 40.1042 268.719 40.8594C268.042 41.6146 267.26 42.2917 266.375 42.8906C265.516 43.4635 264.591 43.9583 263.602 44.375C262.612 44.7917 261.648 45.1432 260.711 45.4297C260.607 45.4036 260.503 45.4036 260.398 45.4297C260.294 45.4557 260.268 45.3906 260.32 45.2344C260.112 45.4167 259.878 45.5339 259.617 45.5859C259.383 45.638 259.122 45.651 258.836 45.625C258.549 45.625 258.25 45.612 257.938 45.5859C257.651 45.5599 257.378 45.5729 257.117 45.625C256.935 45.4427 256.766 45.2604 256.609 45.0781C256.479 44.9219 256.375 44.7135 256.297 44.4531C256.167 44.4531 256.102 44.388 256.102 44.2578C256.128 44.1276 256.089 44.0625 255.984 44.0625C256.141 43.8021 256.206 43.6589 256.18 43.6328C256.18 43.5807 256.141 43.5417 256.062 43.5156C256.01 43.4896 255.958 43.4635 255.906 43.4375C255.854 43.3854 255.841 43.3203 255.867 43.2422C255.971 43.0339 256.01 42.7995 255.984 42.5391C255.958 42.2526 255.932 41.9661 255.906 41.6797C255.88 41.3932 255.893 41.1198 255.945 40.8594C256.023 40.599 256.219 40.3906 256.531 40.2344C257.417 40.3385 258.25 40.3125 259.031 40.1562C259.839 39.974 260.594 39.7266 261.297 39.4141C262 39.1016 262.664 38.763 263.289 38.3984C263.94 38.0339 264.578 37.7083 265.203 37.4219C265.281 37.1875 265.385 36.9922 265.516 36.8359C265.672 36.6797 265.828 36.5365 265.984 36.4062C266.141 36.276 266.284 36.1328 266.414 35.9766C266.544 35.8203 266.635 35.625 266.688 35.3906C266.714 35.2083 266.661 35.1042 266.531 35.0781C266.427 35.026 266.375 34.9219 266.375 34.7656L265.945 34.6484C265.451 34.362 264.891 34.1276 264.266 33.9453C263.641 33.737 263.107 33.5156 262.664 33.2812C262.378 33.4375 262.104 33.4766 261.844 33.3984C261.609 33.3203 261.297 33.2422 260.906 33.1641C260.021 33.112 259.161 33.0208 258.328 32.8906C257.521 32.7604 256.74 32.526 255.984 32.1875C255.932 32.0573 255.867 31.9401 255.789 31.8359C255.711 31.7318 255.568 31.7057 255.359 31.7578C255.203 31.5495 255.047 31.3542 254.891 31.1719C254.734 30.9635 254.591 30.7422 254.461 30.5078C254.513 30.1953 254.552 29.9349 254.578 29.7266C254.604 29.4922 254.526 29.2708 254.344 29.0625C254.448 28.724 254.526 28.4505 254.578 28.2422C254.63 28.0339 254.63 27.7604 254.578 27.4219Z" fill="#016DC0"/>
<path d="M83.9827 68.628H85.7107V73.542C85.0867 74.058 84.3607 74.454 83.5327 74.73C82.7047 75.006 81.8407 75.144 80.9407 75.144C79.6687 75.144 78.5227 74.868 77.5027 74.316C76.4827 73.752 75.6787 72.984 75.0907 72.012C74.5147 71.028 74.2267 69.924 74.2267 68.7C74.2267 67.476 74.5147 66.372 75.0907 65.388C75.6787 64.404 76.4827 63.636 77.5027 63.084C78.5347 62.532 79.6927 62.256 80.9767 62.256C81.9847 62.256 82.8967 62.424 83.7127 62.76C84.5407 63.084 85.2427 63.564 85.8187 64.2L84.7027 65.316C83.6947 64.344 82.4767 63.858 81.0487 63.858C80.0887 63.858 79.2247 64.068 78.4567 64.488C77.7007 64.896 77.1067 65.472 76.6747 66.216C76.2427 66.948 76.0267 67.776 76.0267 68.7C76.0267 69.612 76.2427 70.44 76.6747 71.184C77.1067 71.916 77.7007 72.492 78.4567 72.912C79.2247 73.332 80.0827 73.542 81.0307 73.542C82.1587 73.542 83.1427 73.272 83.9827 72.732V68.628ZM99.417 62.4H101.217V73.434H108.039V75H99.417V62.4ZM125.824 75.144C124.552 75.144 123.406 74.868 122.386 74.316C121.366 73.752 120.562 72.978 119.974 71.994C119.398 71.01 119.11 69.912 119.11 68.7C119.11 67.488 119.398 66.39 119.974 65.406C120.562 64.422 121.366 63.654 122.386 63.102C123.406 62.538 124.552 62.256 125.824 62.256C127.084 62.256 128.224 62.538 129.244 63.102C130.264 63.654 131.062 64.422 131.638 65.406C132.214 66.378 132.502 67.476 132.502 68.7C132.502 69.924 132.214 71.028 131.638 72.012C131.062 72.984 130.264 73.752 129.244 74.316C128.224 74.868 127.084 75.144 125.824 75.144ZM125.824 73.542C126.748 73.542 127.576 73.332 128.308 72.912C129.052 72.492 129.634 71.916 130.054 71.184C130.486 70.44 130.702 69.612 130.702 68.7C130.702 67.788 130.486 66.966 130.054 66.234C129.634 65.49 129.052 64.908 128.308 64.488C127.576 64.068 126.748 63.858 125.824 63.858C124.9 63.858 124.06 64.068 123.304 64.488C122.56 64.908 121.972 65.49 121.54 66.234C121.12 66.966 120.91 67.788 120.91 68.7C120.91 69.612 121.12 70.44 121.54 71.184C121.972 71.916 122.56 72.492 123.304 72.912C124.06 73.332 124.9 73.542 125.824 73.542ZM153.991 68.466C154.723 68.67 155.299 69.042 155.719 69.582C156.139 70.11 156.349 70.782 156.349 71.598C156.349 72.69 155.935 73.53 155.107 74.118C154.291 74.706 153.097 75 151.525 75H145.513V62.4H151.165C152.605 62.4 153.715 62.688 154.495 63.264C155.287 63.84 155.683 64.638 155.683 65.658C155.683 66.318 155.527 66.888 155.215 67.368C154.915 67.848 154.507 68.214 153.991 68.466ZM147.313 63.858V67.89H151.003C151.927 67.89 152.635 67.722 153.127 67.386C153.631 67.038 153.883 66.534 153.883 65.874C153.883 65.214 153.631 64.716 153.127 64.38C152.635 64.032 151.927 63.858 151.003 63.858H147.313ZM151.453 73.542C152.473 73.542 153.241 73.374 153.757 73.038C154.273 72.702 154.531 72.174 154.531 71.454C154.531 70.05 153.505 69.348 151.453 69.348H147.313V73.542H151.453ZM177.424 71.85H170.728L169.342 75H167.488L173.194 62.4H174.976L180.7 75H178.81L177.424 71.85ZM176.794 70.41L174.076 64.236L171.358 70.41H176.794ZM192.84 62.4H194.64V73.434H201.462V75H192.84V62.4Z" fill="#464646"/>
</svg>
